<svg clip-rule="evenodd" fill-rule="evenodd" stroke-linejoin="round" stroke-miterlimit="1.41421" viewBox="0 0 560 400" xmlns="http://www.w3.org/2000/svg"><g fill-rule="nonzero" transform="matrix(3.02952 0 0 3.02952 -10.83404 -27.18784)"><path d="m58 108h14v-34l-20-15v43c0 3.32 2.69 6 6 6" fill="#4285f4"/><path d="m120 108h14c3.32 0 6-2.69 6-6v-43l-20 15" fill="#34a853"/><path d="m120 48v26l20-15v-8c0-7.42-8.47-11.65-14.4-7.2" fill="#fbbc04"/><path d="m72 74v-26l24 18 24-18v26l-24 18" fill="#ea4335"/><path d="m52 51v8l20 15v-26l-5.6-4.2c-5.94-4.45-14.4-.22-14.4 7.2" fill="#c5221f"/></g></svg>